<?xml version="1.0"?>
<svg xmlns="http://www.w3.org/2000/svg" xmlns:xlink="http://www.w3.org/1999/xlink" xmlns:svgjs="http://svgjs.com/svgjs" version="1.1" width="512" height="512" x="0" y="0" viewBox="0 0 512.037 512.037" style="enable-background:new 0 0 512 512" xml:space="preserve" class=""><g transform="matrix(-1,1.2246467991473532e-16,-1.2246467991473532e-16,-1,512.0379943847656,512.0365071296692)">
<path xmlns="http://www.w3.org/2000/svg" style="" d="M384.019,16.037c-0.006-5.375-2.711-10.388-7.2-13.344c-4.499-3.032-10.239-3.539-15.2-1.344  l-105.6,45.28l-105.6-45.28c-8.099-3.535-17.53,0.165-21.064,8.264c-0.884,2.026-1.339,4.213-1.336,6.424v96  c-0.007,6.152,3.514,11.762,9.056,14.432l59.616,28.8l-30.656,24.416c-3.761,3.003-5.97,7.539-6.016,12.352v169.6  c-0.065,2.867,0.095,5.734,0.48,8.576c1.095,7.978,7.948,13.899,16,13.824h159.36c7.991-0.006,14.753-5.907,15.84-13.824  c0.331-2.846,0.438-5.713,0.32-8.576v-169.6c0.003-4.869-2.211-9.474-6.016-12.512l-30.656-24.416l59.616-28.64  c5.542-2.67,9.063-8.28,9.056-14.432V16.037z" fill="#455a64" data-original="#455a64" class=""/>
<path xmlns="http://www.w3.org/2000/svg" style="" d="M336.019,352.037h-160l0.352,16.416c1.44,67.2,27.456,98.048,71.36,140.096  c2.204,2.196,5.177,3.447,8.288,3.488c3.114-0.028,6.091-1.281,8.288-3.488c43.936-42.048,69.952-72.768,71.392-140.096  L336.019,352.037z" fill="#f4033b" data-original="#03a9f4" class=""/>
<path xmlns="http://www.w3.org/2000/svg" d="M256.019,512.037c-3.627,0.003-7.148-1.227-9.984-3.488c-54.538-43.334-86.231-109.255-86.016-178.912v-137.6  c-0.003-4.869,2.211-9.474,6.016-12.512l30.656-24.416l-59.616-28.8c-5.49-2.645-9.002-8.178-9.056-14.272v-96  c0.006-5.375,2.711-10.388,7.2-13.344c4.507-3.001,10.227-3.519,15.2-1.376l105.6,45.312l105.6-45.312  c4.955-2.051,10.601-1.536,15.104,1.376c4.526,2.934,7.269,7.951,7.296,13.344v96c-0.006,6.14-3.524,11.735-9.056,14.4l-59.616,28.8  l30.656,24.416c3.77,3.01,5.98,7.56,6.016,12.384v137.6c0.215,69.657-31.478,135.578-86.016,178.912  C263.166,510.81,259.646,512.04,256.019,512.037z M192.019,199.749v129.888c-0.175,55.336,23.076,108.162,64,145.408  c40.924-37.246,64.175-90.072,64-145.408V199.749l-44.544-35.52c-6.919-5.496-8.073-15.561-2.576-22.48  c1.486-1.871,3.372-3.385,5.52-4.432l73.6-35.2V40.293l-89.6,38.464c-4.032,1.696-8.576,1.696-12.608,0l-89.792-38.464v61.696  l73.6,35.2c7.986,3.782,11.395,13.322,7.613,21.308c-1.031,2.176-2.539,4.092-4.413,5.604L192.019,199.749z" fill="#000000" data-original="#000000" style=""/>
<path xmlns="http://www.w3.org/2000/svg" d="M256.019,128.037c-8.837,0-16-7.163-16-16v-96c0-8.837,7.163-16,16-16s16,7.163,16,16v96  C272.019,120.874,264.855,128.037,256.019,128.037z" fill="#000000" data-original="#000000" style=""/>
<path xmlns="http://www.w3.org/2000/svg" d="M335.699,352.037h-159.36c-8.837,0-16-7.163-16-16s7.163-16,16-16h159.36c8.837,0,16,7.163,16,16  S344.535,352.037,335.699,352.037z" fill="#000000" data-original="#000000" style=""/>
<g xmlns="http://www.w3.org/2000/svg">
</g>
<g xmlns="http://www.w3.org/2000/svg">
</g>
<g xmlns="http://www.w3.org/2000/svg">
</g>
<g xmlns="http://www.w3.org/2000/svg">
</g>
<g xmlns="http://www.w3.org/2000/svg">
</g>
<g xmlns="http://www.w3.org/2000/svg">
</g>
<g xmlns="http://www.w3.org/2000/svg">
</g>
<g xmlns="http://www.w3.org/2000/svg">
</g>
<g xmlns="http://www.w3.org/2000/svg">
</g>
<g xmlns="http://www.w3.org/2000/svg">
</g>
<g xmlns="http://www.w3.org/2000/svg">
</g>
<g xmlns="http://www.w3.org/2000/svg">
</g>
<g xmlns="http://www.w3.org/2000/svg">
</g>
<g xmlns="http://www.w3.org/2000/svg">
</g>
<g xmlns="http://www.w3.org/2000/svg">
</g>
</g></svg>
