<svg width="163" height="153" viewBox="0 0 163 153" fill="none" xmlns="http://www.w3.org/2000/svg">
<rect x="33.4885" y="90" width="98.189" height="30" fill="#A839FF"/>
<rect width="29.2705" height="39.0217" transform="matrix(0.0101106 0.999949 -0.999977 0.00671189 139.28 107.713)" fill="#A839FF"/>
<rect width="28.8035" height="21.6028" transform="matrix(0.0101106 0.999949 -0.999977 0.00671189 137.324 116.01)" fill="#A839FF"/>
<rect width="37.7914" height="14.4148" transform="matrix(-0.999999 -0.00157442 0.00237173 -0.999997 144.32 139.928)" fill="#A839FF"/>
<g filter="url(#filter0_d)">
<rect width="37.7914" height="14.5631" transform="matrix(-0.999999 -0.00157442 0.00237173 -0.999997 143.694 144.623)" fill="#A839FF"/>
</g>
<rect width="37.5817" height="14.5631" transform="matrix(-0.999999 -0.00157442 0.00237173 -0.999997 56.3418 144.622)" fill="#A839FF"/>
<rect width="43.8996" height="14.5631" transform="matrix(-0.999999 -0.00157442 0.00237173 -0.999997 63.887 132.632)" fill="#A839FF"/>
<rect width="43.8996" height="14.5631" transform="matrix(-0.999999 -0.00157442 0.00237173 -0.999997 63.887 123.632)" fill="#A839FF"/>
<rect width="43.8996" height="12.8425" transform="matrix(-0.999999 -0.00157442 0.00237173 -0.999997 60.2017 138.037)" fill="#A839FF"/>
<line x1="61.718" y1="51" x2="98.5389" y2="51" stroke="#A839FF" stroke-width="6"/>
<line x1="82.0378" y1="65" x2="82.0378" y2="54" stroke="#4A4949" stroke-width="6"/>
<line x1="88.1747" y1="79" x2="88.1747" y2="65" stroke="#4A4949" stroke-width="6"/>
<line x1="82.0378" y1="93" x2="82.0378" y2="79" stroke="#4A4949" stroke-width="6"/>
<line x1="61.718" y1="93" x2="99.7663" y2="93" stroke="#4A4949" stroke-width="6"/>
<line x1="62.9453" y1="123" x2="102.221" y2="123" stroke="#4A4949" stroke-width="6"/>
<line x1="115.722" y1="147" x2="137.815" y2="147" stroke="#4A4949" stroke-width="6"/>
<line x1="98.5389" y1="87" x2="129.223" y2="87" stroke="#4A4949" stroke-width="6"/>
<line x1="133.652" y1="109" x2="133.652" y2="89.9997" stroke="#4A4949" stroke-width="6"/>
<line x1="140.951" y1="126" x2="140.951" y2="107" stroke="#4A4949" stroke-width="6"/>
<path d="M145.5 138V124" stroke="#4A4949" stroke-width="6"/>
<line x1="103" y1="138" x2="103" y2="124" stroke="#4A4949" stroke-width="6"/>
<line x1="61.1726" y1="138" x2="61.1726" y2="124" stroke="#4A4949" stroke-width="6"/>
<line x1="15.7601" y1="138" x2="15.7601" y2="124" stroke="#4A4949" stroke-width="6"/>
<line x1="23.1246" y1="126" x2="23.1246" y2="107" stroke="#4A4949" stroke-width="6"/>
<line x1="30.4886" y1="109" x2="30.4886" y2="90" stroke="#4A4949" stroke-width="6"/>
<path d="M141.497 145V138" stroke="#4A4949" stroke-width="6"/>
<line x1="111.722" y1="145" x2="111.722" y2="138" stroke="#4A4949" stroke-width="8"/>
<line x1="52.8086" y1="145" x2="52.8086" y2="138" stroke="#4A4949" stroke-width="8"/>
<line x1="23.1246" y1="145" x2="23.1246" y2="138" stroke="#4A4949" stroke-width="6"/>
<line x1="33.4886" y1="87" x2="64.1727" y2="87" stroke="#4A4949" stroke-width="6"/>
<line x1="26.1246" y1="147" x2="48.2172" y2="147" stroke="#4A4949" stroke-width="6"/>
<line x1="75.2872" y1="108.5" x2="75.2872" y2="102.5" stroke="#EADCDD" stroke-width="6"/>
<line x1="111.495" y1="108" x2="111.495" y2="102" stroke="#EADCDD" stroke-width="6"/>
<line x1="118.859" y1="102" x2="118.859" y2="96" stroke="#EADCDD" stroke-width="6"/>
<line x1="126.223" y1="108" x2="126.223" y2="102" stroke="#EADCDD" stroke-width="6"/>
<line x1="118.859" y1="114" x2="118.859" y2="108" stroke="#EADCDD" stroke-width="6"/>
<line x1="51.9674" y1="108.5" x2="51.9674" y2="102.5" stroke="#EADCDD" stroke-width="6"/>
<line x1="39.6938" y1="108.5" x2="39.6938" y2="102.5" stroke="#EADCDD" stroke-width="6"/>
<g filter="url(#filter1_i)">
<line x1="45.8307" y1="108.5" x2="45.8307" y2="102.5" stroke="#EADCDD" stroke-width="6"/>
</g>
<g filter="url(#filter2_i)">
<line x1="45.8307" y1="114.5" x2="45.8307" y2="108.5" stroke="#EADCDD" stroke-width="6"/>
</g>
<g filter="url(#filter3_i)">
<line x1="45.8307" y1="102.5" x2="45.8307" y2="96.5" stroke="#EADCDD" stroke-width="6"/>
</g>
<line x1="90.0157" y1="108.5" x2="90.0157" y2="102.5" stroke="#4A4949" stroke-width="6"/>
<path d="M17.964 24.068H15.516V26.66H0.036V8.732H15.408V11.18H17.964V16.364H15.48V18.884H17.964V24.068ZM12.816 16.364V11.288H5.184V16.364H12.816ZM12.816 24.068V18.992H5.184V24.068H12.816ZM38.081 26.516H19.937V8.408H38.081V10.928H25.157V16.076H32.897V18.74H25.157V23.888H38.081V26.516ZM53.6979 11.216H48.6579V26.66H43.4739V11.36H38.3259V8.732H53.6979V11.216ZM81.9484 26.66H76.8724V18.992H74.3524V21.512H71.7604V18.992H69.2404V26.66H64.0204V8.732H69.0964V11.18H71.6884V13.808H74.1724V11.288H76.7644V8.732H81.9484V26.66ZM101.741 26.66H96.6653V21.548H89.0333V26.66H83.8133V13.844H86.2613V11.288H88.8533V8.732H96.5933V11.18H99.1853V13.736H101.741V26.66ZM96.5933 18.92V13.736H94.0373V11.288H91.4093V13.88H88.9613V18.92H96.5933ZM121.534 26.66H108.754V24.212H106.198V21.62H103.606V13.844H106.054V11.288H108.646V8.732H121.534V11.216H111.382V13.772H108.754V21.44H111.274V24.068H116.422V19.064H113.902V16.436H121.534V26.66ZM140.571 26.66H125.199V24.14H130.275V11.36H125.199V8.732H140.571V11.216H135.495V24.032H140.571V26.66ZM161.12 13.772H156.044V11.288H150.968V13.772H148.34V21.44H150.86V24.068H155.936V21.584H161.12V24.068H158.672V26.66H148.34V24.212H145.784V21.62H143.192V13.844H145.64V11.288H148.232V8.732H158.564V11.18H161.12V13.772Z" fill="white"/>
<defs>
<filter id="filter0_d" x="101.903" y="130" width="45.8259" height="22.6226" filterUnits="userSpaceOnUse" color-interpolation-filters="sRGB">
<feFlood flood-opacity="0" result="BackgroundImageFix"/>
<feColorMatrix in="SourceAlpha" type="matrix" values="0 0 0 0 0 0 0 0 0 0 0 0 0 0 0 0 0 0 127 0"/>
<feOffset dy="4"/>
<feGaussianBlur stdDeviation="2"/>
<feColorMatrix type="matrix" values="0 0 0 0 0 0 0 0 0 0 0 0 0 0 0 0 0 0 0.25 0"/>
<feBlend mode="normal" in2="BackgroundImageFix" result="effect1_dropShadow"/>
<feBlend mode="normal" in="SourceGraphic" in2="effect1_dropShadow" result="shape"/>
</filter>
<filter id="filter1_i" x="42.8307" y="102.5" width="6" height="10" filterUnits="userSpaceOnUse" color-interpolation-filters="sRGB">
<feFlood flood-opacity="0" result="BackgroundImageFix"/>
<feBlend mode="normal" in="SourceGraphic" in2="BackgroundImageFix" result="shape"/>
<feColorMatrix in="SourceAlpha" type="matrix" values="0 0 0 0 0 0 0 0 0 0 0 0 0 0 0 0 0 0 127 0" result="hardAlpha"/>
<feOffset dy="4"/>
<feGaussianBlur stdDeviation="2"/>
<feComposite in2="hardAlpha" operator="arithmetic" k2="-1" k3="1"/>
<feColorMatrix type="matrix" values="0 0 0 0 0 0 0 0 0 0 0 0 0 0 0 0 0 0 0.25 0"/>
<feBlend mode="normal" in2="shape" result="effect1_innerShadow"/>
</filter>
<filter id="filter2_i" x="42.8307" y="108.5" width="6" height="10" filterUnits="userSpaceOnUse" color-interpolation-filters="sRGB">
<feFlood flood-opacity="0" result="BackgroundImageFix"/>
<feBlend mode="normal" in="SourceGraphic" in2="BackgroundImageFix" result="shape"/>
<feColorMatrix in="SourceAlpha" type="matrix" values="0 0 0 0 0 0 0 0 0 0 0 0 0 0 0 0 0 0 127 0" result="hardAlpha"/>
<feOffset dy="4"/>
<feGaussianBlur stdDeviation="2"/>
<feComposite in2="hardAlpha" operator="arithmetic" k2="-1" k3="1"/>
<feColorMatrix type="matrix" values="0 0 0 0 0 0 0 0 0 0 0 0 0 0 0 0 0 0 0.25 0"/>
<feBlend mode="normal" in2="shape" result="effect1_innerShadow"/>
</filter>
<filter id="filter3_i" x="42.8307" y="96.5" width="6" height="10" filterUnits="userSpaceOnUse" color-interpolation-filters="sRGB">
<feFlood flood-opacity="0" result="BackgroundImageFix"/>
<feBlend mode="normal" in="SourceGraphic" in2="BackgroundImageFix" result="shape"/>
<feColorMatrix in="SourceAlpha" type="matrix" values="0 0 0 0 0 0 0 0 0 0 0 0 0 0 0 0 0 0 127 0" result="hardAlpha"/>
<feOffset dy="4"/>
<feGaussianBlur stdDeviation="2"/>
<feComposite in2="hardAlpha" operator="arithmetic" k2="-1" k3="1"/>
<feColorMatrix type="matrix" values="0 0 0 0 0 0 0 0 0 0 0 0 0 0 0 0 0 0 0.25 0"/>
<feBlend mode="normal" in2="shape" result="effect1_innerShadow"/>
</filter>
</defs>
</svg>
